<svg xmlns="http://www.w3.org/2000/svg" xmlns:xlink="http://www.w3.org/1999/xlink" width="500" zoomAndPan="magnify" viewBox="0 0 375 374.999991" height="500" preserveAspectRatio="xMidYMid meet" version="1.0"><defs><g/><clipPath id="aad2c8c8a1"><path d="M 208 41 L 351 41 L 351 331 L 208 331 Z M 208 41 " clip-rule="nonzero"/></clipPath><clipPath id="4e89693c8d"><path d="M 182.21875 17.730469 L 345.496094 11.644531 L 357.429688 331.777344 L 194.152344 337.867188 Z M 182.21875 17.730469 " clip-rule="nonzero"/></clipPath><clipPath id="ad21a2b8fd"><path d="M 182.21875 17.730469 L 345.496094 11.644531 L 357.429688 331.777344 L 194.152344 337.867188 Z M 182.21875 17.730469 " clip-rule="nonzero"/></clipPath><clipPath id="0da9ff4e64"><path d="M 189 12 L 346 12 L 346 338 L 189 338 Z M 189 12 " clip-rule="nonzero"/></clipPath><clipPath id="28727ade8a"><path d="M 182.21875 17.730469 L 345.496094 11.644531 L 357.429688 331.777344 L 194.152344 337.867188 Z M 182.21875 17.730469 " clip-rule="nonzero"/></clipPath><clipPath id="e682d6f23d"><path d="M 182.21875 17.730469 L 345.496094 11.644531 L 357.429688 331.777344 L 194.152344 337.867188 Z M 182.21875 17.730469 " clip-rule="nonzero"/></clipPath></defs><g clip-path="url(#aad2c8c8a1)"><g clip-path="url(#4e89693c8d)"><g clip-path="url(#ad21a2b8fd)"><path fill="#f94d1f" d="M 294.496094 152.4375 L 316.734375 62.265625 L 321.851562 41.511719 L 310.101562 59.347656 L 213.511719 205.941406 L 208.539062 213.484375 L 217.355469 211.570312 L 257.363281 202.894531 L 224.820312 307.941406 L 217.820312 330.535156 L 231.339844 311.144531 L 344.941406 148.246094 L 350.277344 140.597656 L 341.167969 142.53125 L 294.496094 152.4375 " fill-opacity="1" fill-rule="nonzero"/></g></g></g><g clip-path="url(#0da9ff4e64)"><g clip-path="url(#28727ade8a)"><g clip-path="url(#e682d6f23d)"><path fill="#000000" d="M 249.667969 187.148438 L 214.558594 300.480469 L 330.722656 133.902344 L 277.855469 145.121094 L 302.007812 47.191406 L 203.140625 197.238281 Z M 196.398438 337.628906 L 240.375 195.675781 L 189.253906 206.761719 L 317.015625 12.867188 L 286.453125 136.792969 L 345.144531 124.335938 L 196.398438 337.628906 " fill-opacity="1" fill-rule="nonzero"/></g></g></g><g fill="#f94d1f" fill-opacity="1"><g transform="translate(20.132506, 200.607902)"><g><path d="M 3.34375 -75.71875 L 24.234375 -75.71875 C 29.640625 -75.71875 33.691406 -74.21875 36.390625 -71.21875 C 39.097656 -68.21875 40.484375 -63.78125 40.546875 -57.90625 L 40.71875 -22.46875 C 40.78125 -15.007812 39.488281 -9.398438 36.84375 -5.640625 C 34.195312 -1.878906 29.816406 0 23.703125 0 L 3.34375 0 Z M 21.234375 -13.390625 C 24.003906 -13.390625 25.390625 -14.742188 25.390625 -17.453125 L 25.390625 -56.5 C 25.390625 -58.195312 25.253906 -59.472656 24.984375 -60.328125 C 24.722656 -61.179688 24.238281 -61.753906 23.53125 -62.046875 C 22.820312 -62.335938 21.734375 -62.484375 20.265625 -62.484375 L 18.59375 -62.484375 L 18.59375 -13.390625 Z M 21.234375 -13.390625 "/></g></g></g><g fill="#f94d1f" fill-opacity="1"><g transform="translate(63.583338, 200.607902)"><g><path d="M 3.34375 0 L 3.34375 -75.71875 L 33.671875 -75.71875 L 33.671875 -61.078125 L 18.78125 -61.078125 L 18.78125 -46.359375 L 33.046875 -46.359375 L 33.046875 -32.078125 L 18.78125 -32.078125 L 18.78125 -14.71875 L 34.640625 -14.71875 L 34.640625 0 Z M 3.34375 0 "/></g></g></g><g fill="#f94d1f" fill-opacity="1"><g transform="translate(99.895193, 200.607902)"><g><path d="M 1.328125 0 L 8.640625 -75.71875 L 34.28125 -75.71875 L 41.515625 0 L 27.140625 0 L 26.09375 -12.25 L 16.921875 -12.25 L 16.046875 0 Z M 18.0625 -24.328125 L 24.9375 -24.328125 L 21.59375 -62.84375 L 20.890625 -62.84375 Z M 18.0625 -24.328125 "/></g></g></g><g fill="#f94d1f" fill-opacity="1"><g transform="translate(142.640938, 200.607902)"><g><path d="M 3.34375 0 L 3.34375 -75.71875 L 18.515625 -75.71875 L 18.515625 -12.875 L 34.109375 -12.875 L 34.109375 0 Z M 3.34375 0 "/></g></g></g><path stroke-linecap="butt" transform="matrix(0.917929, 0, 0, 0.917929, 17.378721, 210.846212)" fill="none" stroke-linejoin="miter" d="M 8.528234 -2.270866 L 33.550603 -2.270866 C 40.282812 -2.270866 45.168132 -0.628241 48.210818 2.661264 C 51.253504 5.946514 52.776975 11.316961 52.776975 18.764095 L 52.776975 22.857891 C 52.776975 31.666786 49.627901 36.930846 43.334009 38.645815 C 47.198008 39.641603 49.917275 41.969364 51.491812 45.620587 C 53.066349 49.276066 53.849362 54.11032 53.849362 60.127604 C 53.849362 69.936543 52.381213 77.366655 49.444914 82.422194 C 46.508616 87.473479 41.210512 90.001249 33.550603 90.001249 L 8.528234 90.001249 Z M 30.32493 32.428522 C 31.899467 32.428522 32.971854 31.837007 33.550603 30.645465 C 34.129352 29.458179 34.414471 27.794277 34.414471 25.662269 L 34.414471 16.40229 C 34.414471 13.397903 33.086753 11.891455 30.431318 11.891455 L 26.57583 11.891455 L 26.57583 32.428522 Z M 28.38442 73.79203 C 33.193141 73.79203 35.597501 71.489802 35.597501 66.893857 L 35.597501 55.403993 C 35.597501 52.608126 35.184717 50.501651 34.363405 49.084568 C 33.542092 47.650463 32.090965 46.935538 30.010023 46.935538 L 26.57583 46.935538 L 26.57583 73.66011 Z M 59.9858 -2.270866 L 88.335974 -2.270866 C 92.84681 -2.270866 96.336324 -1.245289 98.800261 0.797353 C 101.285476 2.827229 102.953634 5.686928 103.813246 9.376451 C 104.668603 13.065974 105.098409 17.776818 105.098409 23.513239 C 105.098409 28.738999 104.413272 32.824284 103.051511 35.760582 C 101.685494 38.679859 99.327944 40.718245 95.97035 41.871487 C 98.766217 42.450236 100.787582 43.846042 102.025934 46.067415 C 103.285564 48.288789 103.915378 51.297431 103.915378 55.089086 L 103.706859 90.001249 L 85.663517 90.001249 L 85.663517 53.910311 C 85.663517 51.322964 85.152857 49.671828 84.140047 48.952648 C 83.144258 48.237723 81.314391 47.876005 78.658956 47.876005 L 78.658956 90.001249 L 59.9858 90.001249 Z M 83.169791 31.879562 C 85.757138 31.879562 87.050812 29.08795 87.050812 23.513239 C 87.050812 21.062068 86.935913 19.236456 86.710372 18.032148 C 86.501852 16.806563 86.10609 15.968228 85.531597 15.512889 C 84.96987 15.040528 84.148558 14.80222 83.063404 14.80222 L 78.765344 14.80222 L 78.765344 31.879562 Z M 111.226336 90.001249 L 111.226336 -2.270866 L 148.181141 -2.270866 L 148.181141 15.538422 L 130.001624 15.538422 L 130.001624 33.505165 L 147.419406 33.505165 L 147.419406 50.893158 L 130.001624 50.893158 L 130.001624 72.06004 L 149.359916 72.06004 L 149.359916 90.001249 Z M 152.989862 90.001249 L 161.9094 -2.270866 L 193.17034 -2.270866 L 201.983491 90.001249 L 184.48911 90.001249 L 183.178414 75.077193 L 172.007714 75.077193 L 170.931071 90.001249 Z M 173.420541 60.361657 L 181.786864 60.361657 L 177.722857 13.414925 L 176.858989 13.414925 Z M 207.583736 90.001249 L 207.583736 -2.270866 L 225.835596 -2.270866 L 225.835596 34.683939 L 234.440228 -2.270866 L 253.006996 -2.270866 L 242.700163 39.930977 L 255.160281 90.001249 L 236.040297 90.001249 L 225.941984 45.30568 L 225.941984 90.001249 Z M 258.283822 90.001249 L 258.283822 -2.270866 L 295.238627 -2.270866 L 295.238627 15.538422 L 277.063366 15.538422 L 277.063366 33.505165 L 294.481148 33.505165 L 294.481148 50.893158 L 277.063366 50.893158 L 277.063366 72.06004 L 296.421658 72.06004 L 296.421658 90.001249 Z M 302.541074 -2.270866 L 330.895504 -2.270866 C 335.406339 -2.270866 338.895853 -1.245289 341.359791 0.797353 C 343.845006 2.827229 345.513164 5.686928 346.36852 9.376451 C 347.228132 13.065974 347.653683 17.776818 347.653683 23.513239 C 347.653683 28.738999 346.972802 32.824284 345.61104 35.760582 C 344.245023 38.679859 341.883218 40.718245 338.525624 41.871487 C 341.325747 42.450236 343.342856 43.846042 344.585463 46.067415 C 345.845093 48.288789 346.474908 51.297431 346.474908 55.089086 L 346.266388 90.001249 L 328.218791 90.001249 L 328.218791 53.910311 C 328.218791 51.322964 327.712386 49.671828 326.699576 48.952648 C 325.703788 48.237723 323.873921 47.876005 321.218486 47.876005 L 321.218486 90.001249 L 302.541074 90.001249 Z M 325.729321 31.879562 C 328.316668 31.879562 329.610341 29.08795 329.610341 23.513239 C 329.610341 21.062068 329.495443 19.236456 329.269901 18.032148 C 329.061381 16.806563 328.665619 15.968228 328.086871 15.512889 C 327.529399 15.040528 326.708087 14.80222 325.622933 14.80222 L 321.320618 14.80222 L 321.320618 31.879562 Z M 325.729321 31.879562 " stroke="#ffffff" stroke-width="3.088883" stroke-opacity="1" stroke-miterlimit="4"/></svg>